<svg width="80" height="82" viewBox="0 0 80 82" fill="none" xmlns="http://www.w3.org/2000/svg">
<path d="M3.00003 60.9999C5.60705 54.976 11.8334 53.9999 17.5 52.4999C23.1667 50.9999 30.0419 52.3408 35.5 47.4999C39.8944 43.6025 40.5843 36.9048 41.5 31.9999C41.5 31.9999 35.5 29.5782 35.5 25.9999C35.5 15.9999 35 5.50001 35.5 2.99988C35.8532 1.23382 41.6251 1.50008 42 3C42.5 5.00007 42 13 42 23.5C42 24.6386 44.3303 25.9207 45 24.9999C49 19.4999 55.7865 16.4296 64.5 17.9999C73.2134 19.5702 76.2636 26.818 78 35.4999C80 45.4999 78.8417 49.2998 74.5 57.4999C67.6994 70.3442 56.4137 72.3003 42.5 76.4999C29.9407 80.2907 15 81.9999 9.00003 78.9999C2.37261 75.6862 0.0570471 67.8 3.00003 60.9999Z" stroke="black" stroke-width="2"/>
</svg>
