<svg width="120" height="111" viewBox="0 0 120 111" fill="none" xmlns="http://www.w3.org/2000/svg">
<path d="M52.097 36C54.0834 60.6251 60.0656 85.4797 55.0001 93.5C49.0001 103 15.0422 119.172 4.00017 103C0.586153 98 0.000161648 79.4999 5.50009 57.9999C11 36.4999 21.5001 24.4999 29.5001 17.9999C37.5001 11.4999 51.5 9.99996 51.5 22.5C51.5 23.8808 51.5224 25.2728 51.5645 26.6728M52.097 36C52.097 36 56.1342 33.5895 59 33.5C62.4785 33.3913 67.3534 36.6047 67.3534 36.6047M52.097 36C51.8449 32.8756 51.6572 29.7549 51.5645 26.6728M67.3534 36.6047C65.3193 61.0309 59.4757 85.5455 64.4997 93.5C70.4998 103 104.458 119.172 115.5 103C118.914 98 119.5 79.5 114 58C108.5 36.5 97.9998 24.5 89.9998 18C81.9998 11.5 67.9998 10 67.9999 22.5C67.9999 24.1525 67.9677 25.821 67.9082 27.5M67.3534 36.6047C67.6071 33.5576 67.8016 30.512 67.9082 27.5M67.9082 27.5C67.9082 27.5 65.616 27.1019 65.5 26C64.5 16.5 65.5 7.49999 65.5 4.99996C65.5 0.704195 54.5 0.704195 54.5 4.99996C54.5 11 55.5 15.5 55 25.5C54.9292 26.9159 51.5645 26.6728 51.5645 26.6728" stroke="black" stroke-width="2"/>
</svg>
