<svg width="85" height="40" viewBox="0 0 85 40" fill="none" xmlns="http://www.w3.org/2000/svg">
<path d="M20.4999 18C19.7893 20.6397 20.7773 22.2804 20.4999 25C20.3794 26.1821 20.3635 27.3601 20.3467 28.5M20.4999 18C21.5152 14.2291 26.461 13.9051 26.4999 10C26.5378 6.2089 24.4865 3.48923 20.9999 2.00002C17.1236 0.344332 14.1054 2.31641 10.4999 4.50001C4.59493 8.07633 2.60709 13.1232 1.99994 20C1.4242 26.521 1.31809 32.7486 6.99994 36C10.4063 37.9493 13.5625 38.8941 16.9999 37C20.2347 35.2176 20.2947 32.0431 20.3467 28.5M20.4999 18L26.5 23M62 14.7103C63.0836 15.5577 64.0988 16.5097 64.5 18C65.2107 20.6397 64.2227 22.2804 64.5 25C64.5931 25.9134 64.6238 26.8243 64.6407 27.7172M62 14.7103C60.3419 13.4136 58.5236 12.3617 58.5 10C58.4622 6.2089 60.5134 3.48922 64 2.00001C67.8763 0.344329 70.8946 2.31641 74.5 4.50001C80.405 8.07633 82.3928 13.1232 83 20C83.5757 26.521 83.6818 32.7486 78 36C74.5936 37.9493 71.4374 38.8941 68 37C64.5287 35.0872 64.7134 31.5713 64.6407 27.7172M62 14.7103L55.5 18M55.5 18L44.5 15L41.5 14H39.5M55.5 18L64.6407 27.7172M39.5 14V0.5M39.5 14L39 18.5L26.5 23M26.5 23L20.3467 28.5" stroke="black" stroke-width="2"/>
</svg>
