<svg width="58" height="125" viewBox="0 0 58 125" fill="none" xmlns="http://www.w3.org/2000/svg">
<path d="M11.5001 1C11.5001 1 13.8011 6.22788 15.5001 11C19.9555 23.5141 16.783 31.5452 13.8458 44.5C11.6728 54.0841 11.5001 58 6.50014 67.5C5.06222 70.2321 2.74892 74.0048 2.0001 77C0.500048 83 1.15394 85.9432 3.50002 90C5.24046 93.0095 6.83869 93.5535 10 95M10 95C10.5 90.5 12.6675 89.7239 16 87.5C22.5 84 36.5 82.5 45 89.5C47.2255 91.3328 48.5 93 48.5 96M10 95C10 99 10.8165 100.624 13.5 103C16.1835 105.376 26 105 26.5 109C27 113 26.219 119.524 27 120.5C27.781 121.476 28.219 122.024 29 123C29.781 123.976 30.3703 121.759 31 120.5C31.5 119.5 31.5 112 32 108.5C32.5 105 42.7673 105.087 45 103C47.2327 100.913 49 99 48.5 96M46 2C46 2 43.699 7.22788 42 12C37.5447 24.5141 40.7171 32.5452 43.6543 45.5C45.8273 55.0841 46.0001 59 51 68.5C52.4379 71.2321 54.7512 75.0048 55.5 78C57.0001 84 56.3462 86.9432 54.0001 91C52.2597 94.0095 51.6613 94.5535 48.5 96" stroke="black" stroke-width="2"/>
</svg>
